<?xml version="1.0" encoding="UTF-8"?>
<svg xmlns="http://www.w3.org/2000/svg" xmlns:xlink="http://www.w3.org/1999/xlink" width="5pt" height="6pt" viewBox="0 0 5 6" version="1.1">
<g id="surface1">
<path style=" stroke:none;fill-rule:nonzero;fill:rgb(0%,0%,0%);fill-opacity:1;" d="M 0 0 L 0 6 L 5 6 L 5 0 Z M 4.785156 5.742188 L 0.214844 5.742188 L 0.214844 1.257812 L 4.785156 1.257812 Z M 4.785156 1 L 0.214844 1 L 0.214844 0.257812 L 4.785156 0.257812 Z M 4.785156 1 "/>
<path style=" stroke:none;fill-rule:nonzero;fill:rgb(0%,0%,0%);fill-opacity:1;" d="M 0.417969 0.5 L 0.628906 0.5 L 0.628906 0.757812 L 0.417969 0.757812 Z M 0.417969 0.5 "/>
<path style=" stroke:none;fill-rule:nonzero;fill:rgb(0%,0%,0%);fill-opacity:1;" d="M 0.835938 0.5 L 1.042969 0.5 L 1.042969 0.757812 L 0.835938 0.757812 Z M 0.835938 0.5 "/>
<path style=" stroke:none;fill-rule:nonzero;fill:rgb(0%,0%,0%);fill-opacity:1;" d="M 1.253906 0.5 L 1.460938 0.5 L 1.460938 0.757812 L 1.253906 0.757812 Z M 1.253906 0.5 "/>
<path style=" stroke:none;fill-rule:nonzero;fill:rgb(0%,0%,0%);fill-opacity:1;" d="M 0.769531 1.871094 L 2.082031 3.445312 L 2.082031 4.960938 L 2.917969 5.300781 L 2.917969 3.445312 L 4.230469 1.871094 Z M 2.703125 3.339844 L 2.703125 4.941406 L 2.296875 4.777344 L 2.296875 3.339844 L 1.289062 2.128906 L 3.710938 2.128906 Z M 2.703125 3.339844 "/>
</g>
</svg>
