<?xml version="1.0" encoding="UTF-8"?>
<svg xmlns="http://www.w3.org/2000/svg" xmlns:xlink="http://www.w3.org/1999/xlink" width="6pt" height="6pt" viewBox="0 0 6 6" version="1.1">
<g id="surface1">
<path style=" stroke:none;fill-rule:nonzero;fill:rgb(0%,0%,0%);fill-opacity:1;" d="M 5.519531 2.253906 L 5.132812 1.867188 L 5.132812 1.101562 C 5.132812 0.84375 4.921875 0.632812 4.664062 0.632812 L 3.898438 0.632812 L 3.300781 0.0351562 C 3.28125 0.0117188 3.25 0 3.21875 0 L 2.785156 0 C 2.785156 0 2.78125 0 2.78125 0 C 2.753906 0 2.722656 0.0117188 2.699219 0.0351562 L 2.101562 0.632812 L 1.335938 0.632812 C 1.078125 0.632812 0.867188 0.84375 0.867188 1.101562 L 0.867188 1.867188 L 0.480469 2.25 C 0.367188 2.367188 0.304688 2.519531 0.304688 2.679688 L 0.304688 5.394531 C 0.304688 5.558594 0.371094 5.707031 0.472656 5.816406 C 0.476562 5.816406 0.480469 5.820312 0.480469 5.824219 C 0.484375 5.824219 0.488281 5.828125 0.488281 5.832031 C 0.597656 5.933594 0.746094 6 0.90625 6 L 2.472656 6 C 2.539062 6 2.589844 5.949219 2.589844 5.882812 C 2.589844 5.816406 2.539062 5.765625 2.472656 5.765625 L 0.90625 5.765625 C 0.847656 5.765625 0.792969 5.75 0.742188 5.726562 L 2.125 4.34375 L 2.574219 4.792969 C 2.6875 4.910156 2.839844 4.972656 3 4.972656 C 3.164062 4.972656 3.3125 4.910156 3.429688 4.792969 L 3.875 4.347656 L 5.257812 5.726562 C 5.207031 5.75 5.152344 5.765625 5.09375 5.765625 L 3.527344 5.765625 C 3.460938 5.765625 3.410156 5.816406 3.410156 5.882812 C 3.410156 5.949219 3.460938 6 3.527344 6 L 5.09375 6 C 5.253906 6 5.402344 5.933594 5.511719 5.832031 C 5.511719 5.828125 5.515625 5.824219 5.519531 5.824219 C 5.519531 5.820312 5.523438 5.816406 5.527344 5.816406 C 5.632812 5.707031 5.695312 5.558594 5.695312 5.394531 L 5.695312 2.679688 C 5.695312 2.519531 5.632812 2.367188 5.519531 2.253906 Z M 5.132812 2.199219 L 5.351562 2.417969 C 5.375 2.4375 5.390625 2.460938 5.40625 2.484375 L 5.132812 2.757812 Z M 2.832031 0.234375 L 3.171875 0.234375 L 3.570312 0.632812 L 2.433594 0.632812 Z M 0.648438 2.417969 L 0.867188 2.199219 L 0.867188 2.757812 L 0.59375 2.484375 C 0.609375 2.460938 0.625 2.4375 0.648438 2.417969 Z M 0.578125 5.5625 C 0.554688 5.511719 0.539062 5.457031 0.539062 5.394531 L 0.539062 2.761719 L 1.960938 4.179688 Z M 3.261719 4.628906 C 3.191406 4.699219 3.101562 4.738281 3 4.738281 C 2.902344 4.738281 2.808594 4.699219 2.742188 4.628906 L 1.101562 2.992188 L 1.101562 1.101562 C 1.101562 0.972656 1.207031 0.867188 1.335938 0.867188 L 4.664062 0.867188 C 4.792969 0.867188 4.898438 0.972656 4.898438 1.101562 L 4.898438 1.898438 C 4.898438 1.910156 4.898438 1.917969 4.898438 1.925781 L 4.898438 2.992188 Z M 5.460938 5.394531 C 5.460938 5.457031 5.445312 5.511719 5.421875 5.5625 L 4.042969 4.179688 L 5.460938 2.761719 Z M 5.460938 5.394531 "/>
<path style=" stroke:none;fill-rule:nonzero;fill:rgb(0%,0%,0%);fill-opacity:1;" d="M 3 5.765625 C 2.96875 5.765625 2.9375 5.777344 2.917969 5.800781 C 2.894531 5.820312 2.882812 5.851562 2.882812 5.882812 C 2.882812 5.914062 2.894531 5.945312 2.917969 5.964844 C 2.9375 5.988281 2.96875 6 3 6 C 3.03125 6 3.0625 5.988281 3.082031 5.964844 C 3.105469 5.945312 3.117188 5.914062 3.117188 5.882812 C 3.117188 5.851562 3.105469 5.820312 3.082031 5.800781 C 3.0625 5.777344 3.03125 5.765625 3 5.765625 Z M 3 5.765625 "/>
<path style=" stroke:none;fill-rule:nonzero;fill:rgb(0%,0%,0%);fill-opacity:1;" d="M 3 1.359375 C 2.390625 1.359375 1.894531 1.855469 1.894531 2.464844 C 1.894531 3.082031 2.398438 3.585938 3.015625 3.585938 L 3.726562 3.585938 C 3.792969 3.585938 3.84375 3.535156 3.84375 3.46875 C 3.84375 3.40625 3.792969 3.351562 3.726562 3.351562 L 3.015625 3.351562 C 2.527344 3.351562 2.128906 2.953125 2.128906 2.464844 C 2.128906 1.984375 2.519531 1.59375 3 1.59375 C 3.480469 1.59375 3.871094 1.984375 3.871094 2.464844 L 3.871094 2.703125 C 3.871094 2.796875 3.796875 2.871094 3.703125 2.871094 C 3.613281 2.871094 3.539062 2.796875 3.539062 2.703125 L 3.539062 2.433594 C 3.539062 2.113281 3.277344 1.851562 2.957031 1.851562 C 2.617188 1.851562 2.34375 2.125 2.34375 2.464844 C 2.34375 2.800781 2.617188 3.074219 2.957031 3.074219 L 3.140625 3.074219 C 3.207031 3.074219 3.257812 3.023438 3.257812 2.957031 C 3.257812 2.894531 3.207031 2.839844 3.140625 2.839844 L 2.957031 2.839844 C 2.746094 2.839844 2.578125 2.671875 2.578125 2.464844 C 2.578125 2.253906 2.746094 2.085938 2.957031 2.085938 C 3.148438 2.085938 3.304688 2.242188 3.304688 2.433594 L 3.304688 2.703125 C 3.304688 2.925781 3.484375 3.105469 3.703125 3.105469 C 3.925781 3.105469 4.105469 2.925781 4.105469 2.703125 L 4.105469 2.464844 C 4.105469 1.855469 3.609375 1.359375 3 1.359375 Z M 3 1.359375 "/>
</g>
</svg>
