<?xml version="1.0" encoding="UTF-8"?>
<svg xmlns="http://www.w3.org/2000/svg" xmlns:xlink="http://www.w3.org/1999/xlink" width="6pt" height="6pt" viewBox="0 0 6 6" version="1.1">
<g id="surface1">
<path style=" stroke:none;fill-rule:nonzero;fill:rgb(0%,0%,0%);fill-opacity:1;" d="M 5.054688 4.441406 C 5.414062 3.960938 5.375 3.269531 4.9375 2.832031 C 4.835938 2.730469 4.71875 2.648438 4.597656 2.589844 L 4.597656 1.507812 L 3.085938 0 L 0.00390625 0 L 0.00390625 6 L 4.597656 6 L 4.597656 4.816406 C 4.667969 4.78125 4.738281 4.738281 4.804688 4.6875 L 5.75 5.644531 L 5.996094 5.394531 Z M 3.191406 0.601562 L 3.996094 1.40625 L 3.191406 1.40625 Z M 4.246094 5.648438 L 0.355469 5.648438 L 0.355469 0.351562 L 2.839844 0.351562 L 2.839844 1.757812 L 4.246094 1.757812 L 4.246094 2.484375 C 3.875 2.433594 3.484375 2.546875 3.199219 2.832031 C 2.71875 3.3125 2.71875 4.09375 3.199219 4.574219 C 3.480469 4.855469 3.867188 4.972656 4.246094 4.921875 Z M 4.691406 4.324219 C 4.347656 4.667969 3.789062 4.667969 3.445312 4.324219 C 3.105469 3.980469 3.105469 3.425781 3.445312 3.082031 C 3.789062 2.738281 4.347656 2.738281 4.691406 3.082031 C 5.03125 3.425781 5.03125 3.980469 4.691406 4.324219 Z M 4.691406 4.324219 "/>
<path style=" stroke:none;fill-rule:nonzero;fill:rgb(0%,0%,0%);fill-opacity:1;" d="M 0.707031 2.121094 L 3.191406 2.121094 L 3.191406 2.472656 L 0.707031 2.472656 Z M 0.707031 2.121094 "/>
<path style=" stroke:none;fill-rule:nonzero;fill:rgb(0%,0%,0%);fill-opacity:1;" d="M 0.707031 2.824219 L 2.488281 2.824219 L 2.488281 3.175781 L 0.707031 3.175781 Z M 0.707031 2.824219 "/>
<path style=" stroke:none;fill-rule:nonzero;fill:rgb(0%,0%,0%);fill-opacity:1;" d="M 0.707031 4.230469 L 2.488281 4.230469 L 2.488281 4.582031 L 0.707031 4.582031 Z M 0.707031 4.230469 "/>
<path style=" stroke:none;fill-rule:nonzero;fill:rgb(0%,0%,0%);fill-opacity:1;" d="M 0.707031 3.527344 L 2.488281 3.527344 L 2.488281 3.878906 L 0.707031 3.878906 Z M 0.707031 3.527344 "/>
</g>
</svg>
