<?xml version="1.0" encoding="UTF-8"?>
<svg xmlns="http://www.w3.org/2000/svg" xmlns:xlink="http://www.w3.org/1999/xlink" width="6pt" height="6pt" viewBox="0 0 6 6" version="1.1">
<g id="surface1">
<path style=" stroke:none;fill-rule:nonzero;fill:rgb(0%,0%,0%);fill-opacity:1;" d="M 2.75 6 C 1.234375 6 0 4.765625 0 3.25 C 0 1.734375 1.234375 0.5 2.75 0.5 C 3.277344 0.5 3.789062 0.648438 4.234375 0.933594 C 4.292969 0.972656 4.308594 1.050781 4.269531 1.109375 C 4.234375 1.164062 4.15625 1.183594 4.097656 1.144531 C 3.695312 0.886719 3.230469 0.75 2.75 0.75 C 1.371094 0.75 0.25 1.871094 0.25 3.25 C 0.25 4.628906 1.371094 5.75 2.75 5.75 C 4.128906 5.75 5.25 4.628906 5.25 3.25 C 5.25 3.167969 5.246094 3.085938 5.238281 3.007812 C 5.230469 2.9375 5.28125 2.875 5.351562 2.871094 C 5.421875 2.863281 5.480469 2.914062 5.488281 2.980469 C 5.496094 3.070312 5.5 3.160156 5.5 3.25 C 5.5 4.765625 4.265625 6 2.75 6 Z M 2.75 6 "/>
<path style=" stroke:none;fill-rule:nonzero;fill:rgb(0%,0%,0%);fill-opacity:1;" d="M 3.125 3.8125 C 3.09375 3.8125 3.0625 3.800781 3.035156 3.777344 L 1.910156 2.652344 C 1.863281 2.601562 1.863281 2.523438 1.910156 2.472656 C 1.960938 2.425781 2.039062 2.425781 2.089844 2.472656 L 3.125 3.511719 L 5.785156 0.847656 C 5.835938 0.800781 5.914062 0.800781 5.964844 0.847656 C 6.011719 0.898438 6.011719 0.976562 5.964844 1.027344 L 3.214844 3.777344 C 3.1875 3.800781 3.15625 3.8125 3.125 3.8125 Z M 3.125 3.8125 "/>
</g>
</svg>
