<?xml version="1.0" encoding="UTF-8"?>
<svg xmlns="http://www.w3.org/2000/svg" xmlns:xlink="http://www.w3.org/1999/xlink" width="6pt" height="6pt" viewBox="0 0 6 6" version="1.1">
<g id="surface1">
<path style=" stroke:none;fill-rule:nonzero;fill:rgb(0%,0%,0%);fill-opacity:1;" d="M 4.375 6 C 3.480469 6 2.75 5.269531 2.75 4.375 C 2.75 3.480469 3.480469 2.75 4.375 2.75 C 5.269531 2.75 6 3.480469 6 4.375 C 6 5.269531 5.269531 6 4.375 6 Z M 4.375 3 C 3.617188 3 3 3.617188 3 4.375 C 3 5.132812 3.617188 5.75 4.375 5.75 C 5.132812 5.75 5.75 5.132812 5.75 4.375 C 5.75 3.617188 5.132812 3 4.375 3 Z M 4.375 3 "/>
<path style=" stroke:none;fill-rule:nonzero;fill:rgb(0%,0%,0%);fill-opacity:1;" d="M 4.125 5 C 4.09375 5 4.058594 4.988281 4.035156 4.964844 L 3.535156 4.464844 C 3.488281 4.414062 3.488281 4.335938 3.535156 4.285156 C 3.585938 4.238281 3.664062 4.238281 3.714844 4.285156 L 4.117188 4.691406 L 4.90625 3.792969 C 4.953125 3.742188 5.03125 3.734375 5.082031 3.78125 C 5.132812 3.828125 5.140625 3.90625 5.09375 3.957031 L 4.21875 4.957031 C 4.195312 4.984375 4.164062 5 4.128906 5 C 4.128906 5 4.125 5 4.125 5 Z M 4.125 5 "/>
<path style=" stroke:none;fill-rule:nonzero;fill:rgb(0%,0%,0%);fill-opacity:1;" d="M 2.375 5.25 L 0.625 5.25 C 0.28125 5.25 0 4.96875 0 4.625 L 0 1.375 C 0 1.03125 0.28125 0.75 0.625 0.75 L 1.125 0.75 C 1.195312 0.75 1.25 0.804688 1.25 0.875 C 1.25 0.945312 1.195312 1 1.125 1 L 0.625 1 C 0.417969 1 0.25 1.167969 0.25 1.375 L 0.25 4.625 C 0.25 4.832031 0.417969 5 0.625 5 L 2.375 5 C 2.445312 5 2.5 5.054688 2.5 5.125 C 2.5 5.195312 2.445312 5.25 2.375 5.25 Z M 2.375 5.25 "/>
<path style=" stroke:none;fill-rule:nonzero;fill:rgb(0%,0%,0%);fill-opacity:1;" d="M 4.125 2.25 C 4.054688 2.25 4 2.195312 4 2.125 L 4 1.375 C 4 1.167969 3.832031 1 3.625 1 L 3.125 1 C 3.054688 1 3 0.945312 3 0.875 C 3 0.804688 3.054688 0.75 3.125 0.75 L 3.625 0.75 C 3.96875 0.75 4.25 1.03125 4.25 1.375 L 4.25 2.125 C 4.25 2.195312 4.195312 2.25 4.125 2.25 Z M 4.125 2.25 "/>
<path style=" stroke:none;fill-rule:nonzero;fill:rgb(0%,0%,0%);fill-opacity:1;" d="M 2.875 1.5 L 1.375 1.5 C 1.167969 1.5 1 1.332031 1 1.125 L 1 0.625 C 1 0.554688 1.054688 0.5 1.125 0.5 L 1.511719 0.5 C 1.570312 0.214844 1.824219 0 2.125 0 C 2.425781 0 2.679688 0.214844 2.738281 0.5 L 3.125 0.5 C 3.195312 0.5 3.25 0.554688 3.25 0.625 L 3.25 1.125 C 3.25 1.332031 3.082031 1.5 2.875 1.5 Z M 1.25 0.75 L 1.25 1.125 C 1.25 1.195312 1.304688 1.25 1.375 1.25 L 2.875 1.25 C 2.945312 1.25 3 1.195312 3 1.125 L 3 0.75 L 2.625 0.75 C 2.554688 0.75 2.5 0.695312 2.5 0.625 C 2.5 0.417969 2.332031 0.25 2.125 0.25 C 1.917969 0.25 1.75 0.417969 1.75 0.625 C 1.75 0.695312 1.695312 0.75 1.625 0.75 Z M 1.25 0.75 "/>
<path style=" stroke:none;fill-rule:nonzero;fill:rgb(0%,0%,0%);fill-opacity:1;" d="M 3.375 2.25 L 0.875 2.25 C 0.804688 2.25 0.75 2.195312 0.75 2.125 C 0.75 2.054688 0.804688 2 0.875 2 L 3.375 2 C 3.445312 2 3.5 2.054688 3.5 2.125 C 3.5 2.195312 3.445312 2.25 3.375 2.25 Z M 3.375 2.25 "/>
<path style=" stroke:none;fill-rule:nonzero;fill:rgb(0%,0%,0%);fill-opacity:1;" d="M 2.625 3 L 0.875 3 C 0.804688 3 0.75 2.945312 0.75 2.875 C 0.75 2.804688 0.804688 2.75 0.875 2.75 L 2.625 2.75 C 2.695312 2.75 2.75 2.804688 2.75 2.875 C 2.75 2.945312 2.695312 3 2.625 3 Z M 2.625 3 "/>
<path style=" stroke:none;fill-rule:nonzero;fill:rgb(0%,0%,0%);fill-opacity:1;" d="M 2.125 3.75 L 0.875 3.75 C 0.804688 3.75 0.75 3.695312 0.75 3.625 C 0.75 3.554688 0.804688 3.5 0.875 3.5 L 2.125 3.5 C 2.195312 3.5 2.25 3.554688 2.25 3.625 C 2.25 3.695312 2.195312 3.75 2.125 3.75 Z M 2.125 3.75 "/>
</g>
</svg>
